<svg width="1080" height="1080" viewBox="0 0 1080 1080" fill="none" xmlns="http://www.w3.org/2000/svg">
<rect width="1080" height="1080" rx="200" fill="#F8F8F8"/>
<rect x="509.743" y="343.073" width="60.5138" height="138.826" fill="#4C4C4C"/>
<path d="M509.743 522.835H570.257L600.5 700.816L589.368 704.898C557.527 716.573 522.544 716.381 490.834 704.356L481.5 700.816L509.743 522.835Z" fill="#4C4C4C"/>
<path d="M509.743 741.752V741.752C529.509 747.467 550.49 747.467 570.257 741.752V741.752V800.486V800.486C551.065 809.375 528.935 809.375 509.743 800.486V800.486V741.752Z" fill="#4C4C4C"/>
<path d="M706.736 780.816C706.094 780.988 705.451 781.157 704.809 781.324L586.239 338.813C586.878 338.635 587.519 338.46 588.16 338.288C710.361 305.544 835.969 378.064 868.712 500.265C901.456 622.466 828.936 748.073 706.736 780.816Z" fill="#4C4C4C"/>
<path d="M373.264 780.816C373.906 780.988 374.548 781.157 375.191 781.324L493.761 338.813C493.122 338.635 492.481 338.46 491.839 338.288C369.638 305.544 244.031 378.064 211.288 500.265C178.544 622.466 251.063 748.073 373.264 780.816Z" fill="#4C4C4C"/>
</svg>
